<svg width="613" height="384" viewBox="0 0 613 384" fill="none" xmlns="http://www.w3.org/2000/svg">
<rect width="613" height="384" rx="5" fill="white"/>
<path d="M59.094 20.172L55.608 30H52.612L49.126 20.172H51.674L54.11 27.592L56.56 20.172H59.094ZM61.2986 21.376C60.8786 21.376 60.5332 21.2547 60.2626 21.012C60.0012 20.76 59.8706 20.452 59.8706 20.088C59.8706 19.7147 60.0012 19.4067 60.2626 19.164C60.5332 18.912 60.8786 18.786 61.2986 18.786C61.7092 18.786 62.0452 18.912 62.3066 19.164C62.5772 19.4067 62.7126 19.7147 62.7126 20.088C62.7126 20.452 62.5772 20.76 62.3066 21.012C62.0452 21.2547 61.7092 21.376 61.2986 21.376ZM62.4886 22.188V30H60.0946V22.188H62.4886ZM66.6175 23.294C66.8415 22.93 67.1635 22.636 67.5835 22.412C68.0035 22.188 68.4841 22.076 69.0255 22.076C69.6695 22.076 70.2528 22.2393 70.7755 22.566C71.2981 22.8927 71.7088 23.3593 72.0075 23.966C72.3155 24.5727 72.4695 25.2773 72.4695 26.08C72.4695 26.8827 72.3155 27.592 72.0075 28.208C71.7088 28.8147 71.2981 29.286 70.7755 29.622C70.2528 29.9487 69.6695 30.112 69.0255 30.112C68.4748 30.112 67.9941 30.0047 67.5835 29.79C67.1728 29.566 66.8508 29.272 66.6175 28.908V30H64.2235V19.64H66.6175V23.294ZM70.0335 26.08C70.0335 25.4827 69.8655 25.016 69.5295 24.68C69.2028 24.3347 68.7968 24.162 68.3115 24.162C67.8355 24.162 67.4295 24.3347 67.0935 24.68C66.7668 25.0253 66.6035 25.4967 66.6035 26.094C66.6035 26.6913 66.7668 27.1627 67.0935 27.508C67.4295 27.8533 67.8355 28.026 68.3115 28.026C68.7875 28.026 69.1935 27.8533 69.5295 27.508C69.8655 27.1533 70.0335 26.6773 70.0335 26.08ZM74.9294 21.376C74.5094 21.376 74.1641 21.2547 73.8934 21.012C73.6321 20.76 73.5014 20.452 73.5014 20.088C73.5014 19.7147 73.6321 19.4067 73.8934 19.164C74.1641 18.912 74.5094 18.786 74.9294 18.786C75.3401 18.786 75.6761 18.912 75.9374 19.164C76.2081 19.4067 76.3434 19.7147 76.3434 20.088C76.3434 20.452 76.2081 20.76 75.9374 21.012C75.6761 21.2547 75.3401 21.376 74.9294 21.376ZM76.1194 22.188V30H73.7254V22.188H76.1194ZM82.6143 22.104C83.529 22.104 84.257 22.4027 84.7983 23C85.349 23.588 85.6243 24.4 85.6243 25.436V30H83.2443V25.758C83.2443 25.2353 83.109 24.8293 82.8383 24.54C82.5677 24.2507 82.2037 24.106 81.7463 24.106C81.289 24.106 80.925 24.2507 80.6543 24.54C80.3837 24.8293 80.2483 25.2353 80.2483 25.758V30H77.8543V22.188H80.2483V23.224C80.491 22.8787 80.8177 22.608 81.2283 22.412C81.639 22.2067 82.101 22.104 82.6143 22.104ZM90.2559 22.076C90.8066 22.076 91.2873 22.188 91.6979 22.412C92.1179 22.636 92.4399 22.93 92.6639 23.294V22.188H95.0579V29.986C95.0579 30.7047 94.9133 31.3533 94.6239 31.932C94.3439 32.52 93.9099 32.9867 93.3219 33.332C92.7433 33.6773 92.0199 33.85 91.1519 33.85C89.9946 33.85 89.0566 33.5747 88.3379 33.024C87.6193 32.4827 87.2086 31.7453 87.1059 30.812H89.4719C89.5466 31.1107 89.7239 31.344 90.0039 31.512C90.2839 31.6893 90.6293 31.778 91.0399 31.778C91.5346 31.778 91.9266 31.6333 92.2159 31.344C92.5146 31.064 92.6639 30.6113 92.6639 29.986V28.88C92.4306 29.244 92.1086 29.5427 91.6979 29.776C91.2873 30 90.8066 30.112 90.2559 30.112C89.6119 30.112 89.0286 29.9487 88.5059 29.622C87.9833 29.286 87.5679 28.8147 87.2599 28.208C86.9613 27.592 86.8119 26.8827 86.8119 26.08C86.8119 25.2773 86.9613 24.5727 87.2599 23.966C87.5679 23.3593 87.9833 22.8927 88.5059 22.566C89.0286 22.2393 89.6119 22.076 90.2559 22.076ZM92.6639 26.094C92.6639 25.4967 92.4959 25.0253 92.1599 24.68C91.8333 24.3347 91.4319 24.162 90.9559 24.162C90.4799 24.162 90.0739 24.3347 89.7379 24.68C89.4113 25.016 89.2479 25.4827 89.2479 26.08C89.2479 26.6773 89.4113 27.1533 89.7379 27.508C90.0739 27.8533 90.4799 28.026 90.9559 28.026C91.4319 28.026 91.8333 27.8533 92.1599 27.508C92.4959 27.1627 92.6639 26.6913 92.6639 26.094Z" fill="#121313"/>
<rect x="403.051" y="53.5125" width="194.397" height="126.484" rx="6" fill="#FC5185"/>
<rect x="403.051" y="187.293" width="194.397" height="126.484" rx="6" fill="#34D684"/>
<rect x="15.5518" y="53.5125" width="378.427" height="260.265" rx="6" fill="#D4C6FF"/>
<path d="M106.632 253.947C101.592 258.691 104.532 281.122 106.632 291.745L122.196 309.533H282.282L295.252 291.745C306.517 269.808 296.537 232.825 290.064 216.89C287.099 209.593 277.341 203.921 272.647 199.844C274.129 165.455 256.218 148.953 247.078 145C234.923 145.296 215.579 161.676 207.427 169.828C189.343 165.974 175.681 176.128 171.111 181.686C159.549 176.054 145.048 184.033 139.242 188.727C117.008 185.466 99.0972 190.086 92.9211 192.803C84.9168 211.777 98.7266 241.472 106.632 253.947Z" fill="#FAAE60"/>
<path d="M99.2202 201.327C93.884 210.22 106.138 236.16 112.931 248.018C110.56 237.05 123.554 212.32 130.348 201.327C115.822 196.287 103.544 199.227 99.2202 201.327Z" fill="#FBD999"/>
<path d="M247.077 155.376C240.852 155.376 228.92 168.222 223.732 174.646C231.143 174.646 254.242 189.963 264.865 197.621C261.011 168.272 251.401 157.229 247.077 155.376Z" fill="#FBD999"/>
<path d="M139.242 235.419C142.7 231.096 151.396 224.079 158.511 230.601" stroke="black" stroke-width="7" stroke-linecap="round" stroke-linejoin="round"/>
<path d="M204.462 219.855C203.968 214.914 207.13 205.551 223.732 207.626" stroke="black" stroke-width="7" stroke-linecap="round" stroke-linejoin="round"/>
<path d="M156.337 243.652C133.816 249.87 124.729 279.668 123 293.789V314H283.02C301.985 301.563 301.294 264.769 298.577 247.927C292.354 251.347 269.808 240.543 259.313 234.713C242.719 220.721 222.272 224.737 214.122 228.494C207.603 220.099 194.12 218 188.193 218L170.043 224.219C161.449 222.353 157.325 236.397 156.337 243.652Z" fill="white"/>
<path d="M160.735 231.343C157.77 232.232 158.141 239.125 156.658 242.46C153.397 225.562 167.405 215.902 174.816 213.185C193.896 206.189 209.947 221.16 214.339 227.811C214.383 227.876 214.426 227.942 214.467 228.008C214.426 227.943 214.383 227.877 214.339 227.811C210.642 222.296 199.335 218.979 194.086 218.002C200.608 234.011 191.368 244.189 185.933 247.277L188.527 252.836C192.381 251.65 198.533 252.836 201.868 254.318C214.467 256.171 219.902 251.971 222.249 249.13C225.584 240.236 234.868 231.343 237.813 238.754C249.301 267.659 227.19 288.04 212.985 293.228C177.114 304.197 158.511 289.646 153.694 280.999C144.207 266.473 151.717 264.818 156.658 265.806C164.663 272.921 171.111 270.006 173.334 267.659C175.706 261.433 181.24 256.171 183.71 254.318L181.857 249.13C167.331 249.723 161.723 237.519 160.735 231.343Z" fill="#693A32"/>
<ellipse cx="152.212" cy="212.073" rx="9.26422" ry="6.29968" fill="#F9FFFF"/>
<ellipse cx="198.377" cy="197.328" rx="9.26422" ry="6.29968" transform="rotate(-22.278 198.377 197.328)" fill="#F9FFFF"/>
<path d="M208.909 293.598C209.501 277.293 215.085 270.252 217.802 268.77C209.501 261.951 201.003 267.411 197.791 270.993H192.974C185.859 269.511 180.375 284.334 178.151 291.004C164.514 309.088 175.681 314.968 182.598 315.462C197.124 318.723 206.191 302.245 208.909 293.598Z" fill="#FA898D"/>
<path d="M132.942 322.132C153.101 325.393 148.636 301.01 141.465 293.228C124.048 274.329 86.8504 277.731 80.6915 293.228C69.2038 322.132 83.409 324.85 92.9202 324.726C98.2564 331.841 107.99 329.914 112.19 328.062C122.862 335.176 130.471 327.073 132.942 322.132Z" fill="white"/>
<path d="M277.834 322.132C261.826 325.393 265.976 305.951 270.052 295.822C279.895 271.364 333.79 274.699 333.79 295.822C342.684 322.132 328.108 324.85 320.45 324.726C313.335 333.62 303.651 330.656 299.698 328.062C289.322 335.176 280.799 327.073 277.834 322.132Z" fill="white"/>
<path d="M132.942 322.132C153.101 325.393 148.636 301.01 141.465 293.228C124.048 274.329 86.8504 277.731 80.6915 293.228C69.2038 322.132 83.409 324.85 92.9202 324.726C98.2564 331.841 107.99 329.914 112.19 328.062C122.862 335.176 130.471 327.073 132.942 322.132Z" stroke="#693A32" stroke-width="4" stroke-linecap="round" stroke-linejoin="round"/>
<path d="M277.834 322.132C261.826 325.393 265.976 305.951 270.052 295.822C279.895 271.364 333.79 274.699 333.79 295.822C342.684 322.132 328.108 324.85 320.45 324.726C313.335 333.62 303.651 330.656 299.698 328.062C289.322 335.176 280.799 327.073 277.834 322.132Z" stroke="#693A32" stroke-width="4" stroke-linecap="round" stroke-linejoin="round"/>
<path d="M479.993 105.288C445.538 114.307 439 146.5 441.742 164.445L445.229 179.886H535.493C544.032 180.541 554.12 179.712 543.288 138.999C532.457 98.2858 496.145 101.06 479.993 105.288Z" fill="#FEFEFE"/>
<path d="M423.251 116.875C424.574 111.089 449.012 113.224 461.066 115.015L455.9 134.852H444.535L423.251 116.875Z" fill="#FAB15F"/>
<path d="M540.415 89.1853C535.621 83.8954 514.585 97.5886 504.667 105.096L525.537 125.967L540.415 89.1853Z" fill="#FAB15F"/>
<path d="M423.251 116.875C424.574 111.089 449.012 113.224 461.066 115.015L455.9 134.852H444.535L423.251 116.875Z" stroke="#684037" stroke-width="4"/>
<path d="M540.415 89.1853C535.621 83.8954 514.585 97.5886 504.667 105.096L525.537 125.967L540.415 89.1853Z" stroke="#684037" stroke-width="4"/>
<path d="M458.38 114.863C464.51 108.802 482.763 98.1669 506.733 104.118" stroke="#684037" stroke-width="4" stroke-linecap="round" stroke-linejoin="round"/>
<path d="M423.043 116.669C431.805 113.528 445.153 121.008 450.733 125.141L442.88 147.251C429.986 141.465 424.283 124.452 423.043 116.669Z" fill="#F78B8B"/>
<path d="M540.414 88.7724C531.322 88.4418 522.987 102.686 519.956 109.85L535.868 125.141C544.464 118.198 542.48 98.0023 540.414 88.7724Z" fill="#F78B8B"/>
<path d="M423.043 116.669C431.805 113.528 445.153 121.008 450.733 125.141L442.88 147.251C429.986 141.465 424.283 124.452 423.043 116.669Z" stroke="#684037" stroke-width="5" stroke-linecap="round" stroke-linejoin="round"/>
<path d="M540.414 88.7724C531.322 88.4418 522.987 102.686 519.956 109.85L535.868 125.141C544.464 118.198 542.48 98.0023 540.414 88.7724Z" stroke="#684037" stroke-width="5" stroke-linecap="round" stroke-linejoin="round"/>
<path d="M479.869 105.716C479.207 149.358 454.449 153.893 441.5 151C447.079 86.529 529.668 95.2317 540.207 128.239L537.934 134.025C508.674 131.711 487.032 114.188 479.869 105.716Z" fill="#FAAF5E"/>
<path d="M435.961 188.154C423.066 188.319 426.869 175.273 430.381 168.73C442.945 156.993 461.274 165.63 464.477 172.449C470.98 186.294 463.444 187.465 459.724 188.154C456.087 194.27 449.668 192.355 446.912 190.634C442.78 193.94 437.889 190.358 435.961 188.154Z" fill="#FEFEFE"/>
<path d="M529.981 160.258C534.94 168.193 532.981 175.263 532.223 178.5H572.104C569.129 171.888 569.793 164.046 569.656 160.258C574.45 140.42 565.592 136.839 560.564 137.527C559.406 125.294 551.127 127.747 547.132 130.502C538.04 123.228 535.491 133.532 535.354 139.594C522.955 136.288 526.606 151.992 529.981 160.258Z" fill="#FEFEFE"/>
<path d="M435.961 188.154C423.066 188.319 426.869 175.273 430.381 168.73C442.945 156.993 461.274 165.63 464.477 172.449C470.98 186.294 463.444 187.465 459.724 188.154C456.087 194.27 449.668 192.355 446.912 190.634C442.78 193.94 437.889 190.358 435.961 188.154Z" stroke="#684037" stroke-width="3"/>
<path d="M529.981 160.258C534.94 168.193 532.981 175.263 532.223 178.5H572.104C569.129 171.888 569.793 164.046 569.656 160.258C574.45 140.42 565.592 136.839 560.564 137.527C559.406 125.294 551.127 127.747 547.132 130.502C538.04 123.228 535.491 133.532 535.354 139.594C522.955 136.288 526.606 151.992 529.981 160.258Z" stroke="#684037" stroke-width="3"/>
<path d="M460 129.905C461.653 127.632 466.571 123.954 473.018 127.425" stroke="#684037" stroke-width="3" stroke-linecap="round" stroke-linejoin="round"/>
<path d="M503 120.533C504.584 117.64 509.199 112.722 514.985 116.194" stroke="#684037" stroke-width="3" stroke-linecap="round" stroke-linejoin="round"/>
<path d="M480.488 123.901C479.892 123.305 476.7 128.516 475.322 130.72C479.662 111.916 498.259 117.082 502.599 124.521C499.954 121.215 493.231 120.388 490.2 120.388C488.547 127.001 481.935 125.347 480.488 123.901Z" fill="#693A32"/>
<path d="M488.341 127.62C487.101 139.191 476.769 146.01 473.049 140.225C473.876 142.704 476.424 143.462 477.595 143.531C482.72 155.764 493.369 153.863 498.053 151.383C508.467 145.928 508.316 136.712 506.938 132.786L507.765 131.339C500.16 137.125 492.336 131.27 489.374 127.62H488.341Z" fill="#693A32"/>
<path d="M489.376 150.557C494.5 151.88 500.465 146.7 502.807 143.945C499.501 138.655 495.506 141.741 493.922 143.945C486.814 142.126 487.929 147.595 489.376 150.557Z" fill="#F78B89"/>
<path d="M472.638 133.406V131.96C460.736 131.96 452.801 136.644 450.321 138.986C458.091 133.2 468.436 132.855 472.638 133.406Z" fill="#673830"/>
<path d="M472.638 135.473V136.919C464.042 136.919 455.556 142.705 452.387 145.598C459.496 138.324 468.85 135.817 472.638 135.473Z" fill="#673830"/>
<path d="M474.704 138.986V137.952C464.786 141.589 458.311 148.56 456.314 151.59C463.918 143.656 471.742 139.881 474.704 138.986Z" fill="#673830"/>
<path d="M505.08 124.521L505.7 125.554C509.998 120.925 521.68 118.942 526.984 118.528C515.908 118.363 507.766 122.454 505.08 124.521Z" fill="#673830"/>
<path d="M507.56 128.86L506.733 127.62C512.684 124.149 523.54 124.796 528.223 125.554C517.478 124.727 509.97 127.414 507.56 128.86Z" fill="#673830"/>
<path d="M507.56 131.34L506.733 130.307C513.015 128.323 522.3 130.582 526.157 131.96C520.206 130.141 511.279 130.789 507.56 131.34Z" fill="#673830"/>
<path d="M542.366 147.498C541.044 148.324 539.886 150.046 539.473 150.804C535.96 159.483 549.667 158.381 556.211 157.21C562.162 153.408 555.178 147.498 550.425 144.605C548.565 140.059 542.366 142.332 542.366 147.498Z" fill="#F78F8C"/>
<circle cx="562.616" cy="145.432" r="3.09958" fill="#F78A8A"/>
<circle cx="551.873" cy="135.1" r="3.09958" fill="#F78A8A"/>
<circle cx="542.1" cy="135.1" r="3.09958" fill="#F78A8A"/>
<circle cx="534.1" cy="145.432" r="3.09958" fill="#F78A8A"/>
<path d="M441 149C442.312 141.957 445.95 126.696 450 122" stroke="#684037" stroke-width="2" stroke-linejoin="round"/>
<path d="M518.329 107C524.793 110.091 536.013 119.373 539.5 124.5" stroke="#684037" stroke-width="2" stroke-linejoin="round"/>
<path d="M445.028 258.937C438.951 266.119 436.051 285.717 435.36 294.617L437.202 313.493H558.974C559.051 305.59 559.159 287.712 558.974 279.425C558.79 271.138 554.14 262.313 551.838 258.937C550.549 219.16 540.559 205.072 535.725 203C527.99 204.657 518.383 222.26 514.547 230.854C504.418 228.275 488.535 229.779 481.859 230.854C473.388 210.781 464.518 203.921 461.142 203C446.594 212.76 444.338 244.358 445.028 258.937Z" fill="black" stroke="black" stroke-linecap="round" stroke-linejoin="round"/>
<path d="M463.674 210.826C453.729 212.852 451.09 237.299 451.013 249.269C455.617 238.956 470.733 233.616 477.716 232.234C476.979 229.84 468.047 216.965 463.674 210.826Z" fill="white"/>
<path d="M533.192 210.826C531.903 210.826 523.294 225.098 519.151 232.234C528.727 232.234 540.942 243.591 545.853 249.269C544.472 215.43 534.804 210.826 533.192 210.826Z" fill="white"/>
<path d="M462.293 258.707C446.455 261.285 441.575 284.028 441.115 295.078V314.184L553.68 315.565V281.957C552.022 266.487 540.252 260.011 534.574 258.707C534.574 248.21 521.836 247.274 515.467 248.118C511.969 242.225 507.718 249.192 506.03 253.412H500.505L498.433 236.378L496.592 253.412H491.527C486.187 242.916 482.243 245.663 481.169 248.118C467.173 245.724 462.753 254.18 462.293 258.707Z" fill="white"/>
<circle cx="475.499" cy="260.088" r="5.52466" fill="black"/>
<circle cx="521.537" cy="260.088" r="5.52466" fill="black"/>
<circle cx="477.485" cy="258.247" r="1.61136" fill="white"/>
<circle cx="523.525" cy="258.247" r="1.61136" fill="white"/>
<path d="M480.938 260.548C477.808 269.572 472.114 275.664 469.659 277.583C476.288 275.925 481.169 266.61 482.78 262.16C492.605 250.558 509.713 255.945 513.626 262.16C518.046 273.025 524.368 276.969 526.977 277.583C520.9 274.452 517.232 264.922 516.158 260.548C503.728 245.586 485.082 253.412 480.938 260.548Z" fill="black"/>
<path d="M485.772 262.16C484.483 269.71 492.602 275.588 496.822 277.583V281.266C492.034 280.898 487.461 284.949 485.772 287.021C474.355 294.571 468.585 287.865 467.127 283.568C466.574 285.409 468.585 288.939 469.659 290.474C470.764 298.945 476.803 312.265 480.103 313.723H516.158C525.221 305.206 525.826 291.164 526.977 290.474C527.898 289.921 529.356 285.64 529.97 283.568C524.813 294.433 515.698 290.397 511.784 287.021C508.285 282.785 502.5 281.419 500.045 281.266V277.583C510.357 272.979 511.554 265.382 510.864 262.16C507.411 252.722 485.772 256.865 485.772 262.16Z" fill="black"/>
<path d="M486.232 299.682C487.706 295.078 494.213 296.996 497.282 298.531L498.433 313.033L500.044 298.531C505.569 294.479 510.173 297.61 511.784 299.682C518.782 320.86 505.799 324.773 498.433 324.082C479.281 323.714 482.319 307.662 486.232 299.682Z" fill="#FB8988"/>
<path d="M429.835 322.01C413.63 332.691 415.648 312.803 420.397 302.214C424.456 293.164 448.188 292.085 452.164 302.214C459.899 321.918 450.476 321.934 444.798 319.478C438.721 330.343 432.291 325.693 429.835 322.01Z" fill="#FEFEFE"/>
<path d="M541.249 290.244C531.121 288.218 534.099 304.136 537.169 312.5H576.072C578.097 286.718 570.024 283.798 565.42 285.41C564.5 277 554 279 553 283.5C544.5 279 540.712 284.949 541.249 290.244Z" fill="#FEFEFE"/>
<path d="M429.835 322.01C413.63 332.691 415.648 312.803 420.397 302.214C424.456 293.164 448.188 292.085 452.164 302.214C459.899 321.918 450.476 321.934 444.798 319.478C438.721 330.343 432.291 325.693 429.835 322.01Z" stroke="black" stroke-width="3" stroke-linecap="round" stroke-linejoin="round"/>
<path d="M541.249 290.244C531.121 288.218 534.099 304.136 537.169 312.5H576.072C578.097 286.718 570.024 283.798 565.42 285.41C564.5 277 554 279 553 283.5C544.5 279 540.712 284.949 541.249 290.244Z" stroke="black" stroke-width="3" stroke-linecap="round" stroke-linejoin="round"/>
<path d="M548.155 298.07C544.472 306.91 552.913 306.818 557.593 305.667C568.274 303.641 564.039 296.689 560.586 293.466C554.14 288.862 549.613 294.617 548.155 298.07Z" fill="#FB8A8C"/>
<circle cx="540.789" cy="296.229" r="2.76233" fill="#FB8A8C"/>
<circle cx="547.234" cy="287.021" r="2.76233" fill="#FB8A8C"/>
<circle cx="559.204" cy="285.64" r="2.76233" fill="#FB8A8C"/>
<circle cx="567.031" cy="291.164" r="2.76233" fill="#FB8A8C"/>
<path d="M37.6 19.5714C37.6 18.1533 36.389 17 34.9 17H18.7C17.211 17 16 18.1533 16 19.5714V32.4286C16 33.8467 17.211 35 18.7 35H34.9C36.389 35 37.6 33.8467 37.6 32.4286V28.1433L43 32.4286V19.5714L37.6 23.8567V19.5714Z" fill="black"/>
<path d="M549.378 22.006V19.78H553.256V30H550.764V22.006H549.378ZM554.894 24.75C554.894 23.1447 555.202 21.88 555.818 20.956C556.443 20.032 557.446 19.57 558.828 19.57C560.209 19.57 561.208 20.032 561.824 20.956C562.449 21.88 562.762 23.1447 562.762 24.75C562.762 26.374 562.449 27.648 561.824 28.572C561.208 29.496 560.209 29.958 558.828 29.958C557.446 29.958 556.443 29.496 555.818 28.572C555.202 27.648 554.894 26.374 554.894 24.75ZM560.41 24.75C560.41 23.8073 560.307 23.084 560.102 22.58C559.896 22.0667 559.472 21.81 558.828 21.81C558.184 21.81 557.759 22.0667 557.554 22.58C557.348 23.084 557.246 23.8073 557.246 24.75C557.246 25.3847 557.283 25.912 557.358 26.332C557.432 26.7427 557.582 27.0787 557.806 27.34C558.039 27.592 558.38 27.718 558.828 27.718C559.276 27.718 559.612 27.592 559.836 27.34C560.069 27.0787 560.223 26.7427 560.298 26.332C560.372 25.912 560.41 25.3847 560.41 24.75ZM565.384 30.112C564.964 30.112 564.619 29.9907 564.348 29.748C564.087 29.496 563.956 29.188 563.956 28.824C563.956 28.4507 564.087 28.138 564.348 27.886C564.619 27.634 564.964 27.508 565.384 27.508C565.795 27.508 566.131 27.634 566.392 27.886C566.663 28.138 566.798 28.4507 566.798 28.824C566.798 29.188 566.663 29.496 566.392 29.748C566.131 29.9907 565.795 30.112 565.384 30.112ZM565.384 24.414C564.964 24.414 564.619 24.2927 564.348 24.05C564.087 23.798 563.956 23.49 563.956 23.126C563.956 22.7527 564.087 22.44 564.348 22.188C564.619 21.936 564.964 21.81 565.384 21.81C565.795 21.81 566.131 21.936 566.392 22.188C566.663 22.44 566.798 22.7527 566.798 23.126C566.798 23.49 566.663 23.798 566.392 24.05C566.131 24.2927 565.795 24.414 565.384 24.414ZM568.005 24.75C568.005 23.1447 568.313 21.88 568.929 20.956C569.554 20.032 570.558 19.57 571.939 19.57C573.32 19.57 574.319 20.032 574.935 20.956C575.56 21.88 575.873 23.1447 575.873 24.75C575.873 26.374 575.56 27.648 574.935 28.572C574.319 29.496 573.32 29.958 571.939 29.958C570.558 29.958 569.554 29.496 568.929 28.572C568.313 27.648 568.005 26.374 568.005 24.75ZM573.521 24.75C573.521 23.8073 573.418 23.084 573.213 22.58C573.008 22.0667 572.583 21.81 571.939 21.81C571.295 21.81 570.87 22.0667 570.665 22.58C570.46 23.084 570.357 23.8073 570.357 24.75C570.357 25.3847 570.394 25.912 570.469 26.332C570.544 26.7427 570.693 27.0787 570.917 27.34C571.15 27.592 571.491 27.718 571.939 27.718C572.387 27.718 572.723 27.592 572.947 27.34C573.18 27.0787 573.334 26.7427 573.409 26.332C573.484 25.912 573.521 25.3847 573.521 24.75ZM577.138 24.75C577.138 23.1447 577.446 21.88 578.062 20.956C578.687 20.032 579.69 19.57 581.072 19.57C582.453 19.57 583.452 20.032 584.068 20.956C584.693 21.88 585.006 23.1447 585.006 24.75C585.006 26.374 584.693 27.648 584.068 28.572C583.452 29.496 582.453 29.958 581.072 29.958C579.69 29.958 578.687 29.496 578.062 28.572C577.446 27.648 577.138 26.374 577.138 24.75ZM582.654 24.75C582.654 23.8073 582.551 23.084 582.346 22.58C582.14 22.0667 581.716 21.81 581.072 21.81C580.428 21.81 580.003 22.0667 579.798 22.58C579.592 23.084 579.49 23.8073 579.49 24.75C579.49 25.3847 579.527 25.912 579.602 26.332C579.676 26.7427 579.826 27.0787 580.05 27.34C580.283 27.592 580.624 27.718 581.072 27.718C581.52 27.718 581.856 27.592 582.08 27.34C582.313 27.0787 582.467 26.7427 582.542 26.332C582.616 25.912 582.654 25.3847 582.654 24.75Z" fill="#6C63FF"/>
<ellipse cx="305.68" cy="357.439" rx="22.6797" ry="21.2833" fill="#F2ECEC" fill-opacity="0.69"/>
<path d="M299.769 351.447C299.769 354.451 302.213 356.895 305.216 356.895C308.219 356.895 310.663 354.451 310.663 351.447C310.663 348.444 308.219 346 305.216 346C302.213 346 299.769 348.444 299.769 351.447ZM314.9 369H316.111V367.789C316.111 363.118 312.309 359.316 307.637 359.316H302.795C298.122 359.316 294.321 363.118 294.321 367.789V369H314.9Z" fill="#9D86E1"/>
<ellipse cx="415.68" cy="357.283" rx="22.6797" ry="21.2833" fill="#F2ECEC" fill-opacity="0.69"/>
<path d="M405 347.438C405 347.056 405.151 346.691 405.421 346.421C405.691 346.151 406.056 346 406.438 346H409.532C409.873 346 410.202 346.121 410.461 346.341C410.721 346.561 410.894 346.866 410.95 347.202L412.014 353.577C412.064 353.881 412.016 354.193 411.877 354.467C411.737 354.741 411.513 354.963 411.237 355.101L409.012 356.212C409.81 358.189 410.998 359.986 412.506 361.494C414.014 363.002 415.811 364.19 417.788 364.988L418.901 362.763C419.038 362.487 419.26 362.264 419.534 362.124C419.808 361.984 420.12 361.936 420.423 361.986L426.798 363.05C427.134 363.106 427.439 363.279 427.659 363.539C427.879 363.798 428 364.127 428 364.468V367.562C428 367.944 427.849 368.309 427.579 368.579C427.309 368.849 426.944 369 426.562 369H423.688C413.366 369 405 360.634 405 350.312V347.438Z" fill="#9D86E1"/>
<path d="M426.141 347.859C426.411 348.128 426.562 348.494 426.562 348.875C426.562 349.256 426.411 349.622 426.141 349.891L424.283 351.75L426.141 353.609C426.403 353.88 426.548 354.243 426.545 354.62C426.542 354.997 426.39 355.357 426.124 355.624C425.857 355.89 425.497 356.042 425.12 356.045C424.743 356.048 424.38 355.903 424.109 355.641L422.25 353.783L420.391 355.641C420.259 355.779 420.1 355.888 419.925 355.963C419.749 356.039 419.561 356.078 419.37 356.08C419.179 356.082 418.99 356.045 418.813 355.973C418.636 355.901 418.476 355.794 418.341 355.659C418.206 355.524 418.099 355.364 418.027 355.187C417.955 355.01 417.918 354.821 417.92 354.63C417.922 354.439 417.961 354.251 418.037 354.075C418.112 353.9 418.221 353.741 418.359 353.609L420.217 351.75L418.359 349.891C418.097 349.62 417.952 349.257 417.955 348.88C417.958 348.503 418.11 348.143 418.376 347.876C418.643 347.61 419.003 347.458 419.38 347.455C419.757 347.452 420.12 347.597 420.391 347.859L422.25 349.717L424.109 347.859C424.378 347.589 424.744 347.438 425.125 347.438C425.506 347.438 425.872 347.589 426.141 347.859Z" fill="#9D86E1"/>
<ellipse cx="250.68" cy="357.439" rx="22.6797" ry="21.2833" fill="#F2ECEC" fill-opacity="0.69"/>
<path fill-rule="evenodd" clip-rule="evenodd" d="M258.097 359.82C258.351 359.073 258.48 358.29 258.48 357.502V356.064C258.48 355.874 258.404 355.691 258.269 355.556C258.134 355.421 257.952 355.346 257.761 355.346C257.57 355.346 257.388 355.421 257.253 355.556C257.118 355.691 257.042 355.874 257.042 356.064V357.502C257.042 357.895 257.004 358.278 256.927 358.65L258.097 359.82ZM254.473 362.292C253.606 362.867 252.6 363.196 251.562 363.245C250.523 363.294 249.491 363.06 248.575 362.568C247.659 362.077 246.893 361.346 246.36 360.454C245.826 359.561 245.544 358.541 245.544 357.502V356.064C245.544 355.874 245.468 355.691 245.334 355.556C245.199 355.421 245.016 355.346 244.825 355.346C244.635 355.346 244.452 355.421 244.317 355.556C244.182 355.691 244.107 355.874 244.107 356.064V357.502C244.107 359.283 244.768 361.001 245.964 362.323C247.159 363.644 248.802 364.474 250.575 364.652V367.563H246.263C246.072 367.563 245.889 367.638 245.755 367.773C245.62 367.908 245.544 368.091 245.544 368.281C245.544 368.472 245.62 368.655 245.755 368.79C245.889 368.924 246.072 369 246.263 369H256.324C256.514 369 256.697 368.924 256.832 368.79C256.967 368.655 257.042 368.472 257.042 368.281C257.042 368.091 256.967 367.908 256.832 367.773C256.697 367.638 256.514 367.563 256.324 367.563H252.012V364.652C253.273 364.527 254.479 364.07 255.505 363.326L254.473 362.292ZM255.605 357.329V350.315C255.606 349.293 255.243 348.303 254.582 347.523C253.92 346.743 253.003 346.224 251.995 346.057C250.986 345.891 249.95 346.089 249.074 346.615C248.197 347.142 247.536 347.962 247.208 348.931L255.605 357.328V357.329ZM246.981 354.8L253.429 361.247C252.773 361.621 252.031 361.816 251.276 361.813C250.521 361.81 249.78 361.609 249.127 361.23C248.475 360.851 247.933 360.307 247.556 359.652C247.18 358.998 246.981 358.257 246.981 357.502V354.801V354.8ZM259.408 365.197L242.161 347.949L243.178 346.932L260.426 364.179L259.408 365.195V365.197Z" fill="#9D86E1"/>
<ellipse cx="360.68" cy="357.439" rx="22.6797" ry="21.2833" fill="#F2ECEC" fill-opacity="0.69"/>
<path d="M370.182 346H351.782C350.514 346 349.482 347.028 349.482 348.291V362.109C349.482 363.372 350.514 364.4 351.782 364.4H355.232V369L362.536 364.4H370.182C371.451 364.4 372.482 363.372 372.482 362.109V348.291C372.48 347.682 372.237 347.099 371.806 346.67C371.375 346.24 370.791 345.999 370.182 346Z" fill="#9D86E1"/>
<ellipse cx="195.68" cy="357.283" rx="22.6797" ry="21.2833" fill="#F2ECEC" fill-opacity="0.69"/>
<path d="M199.041 349.13H185.646C185.21 349.13 184.792 349.303 184.484 349.611C184.176 349.92 184.003 350.337 184.003 350.773V363.914C183.999 363.993 183.999 364.073 184.003 364.152L199.041 349.13Z" fill="#9D86E1"/>
<path d="M206.557 350.863C206.426 350.801 206.281 350.774 206.137 350.785C205.993 350.797 205.854 350.846 205.735 350.929L201.251 354.107V352.777L207 347.027L205.817 345.845L184.004 367.659L185.186 368.841L188.472 365.556H199.608C200.044 365.556 200.462 365.383 200.77 365.075C201.078 364.767 201.251 364.349 201.251 363.913V360.579L205.702 363.757C205.825 363.845 205.969 363.897 206.119 363.907C206.269 363.918 206.42 363.888 206.554 363.819C206.687 363.751 206.8 363.646 206.879 363.518C206.957 363.39 206.999 363.243 207 363.092V351.594C207 351.443 206.959 351.295 206.881 351.166C206.803 351.037 206.691 350.932 206.557 350.863Z" fill="#9D86E1"/>
</svg>
